<?xml version="1.0" encoding="UTF-8"?>
<svg xmlns="http://www.w3.org/2000/svg" xmlns:xlink="http://www.w3.org/1999/xlink" width="16px" height="11px" viewBox="0 0 15 11" version="1.1">
<g id="surface1">
<path style=" stroke:none;fill-rule:nonzero;fill:rgb(0%,0%,0%);fill-opacity:1;" d="M 14.5 2.121094 C 14.433594 2.152344 14.402344 2.195312 14.285156 2.375 C 14.113281 2.640625 13.996094 2.804688 13.777344 3.078125 C 13.390625 3.558594 13.167969 3.796875 12.566406 4.355469 C 12.226562 4.671875 11.957031 4.890625 11.492188 5.21875 C 10.84375 5.679688 10.089844 6.125 9.417969 6.445312 C 8.757812 6.757812 8.632812 6.8125 8.074219 7.03125 C 7.496094 7.257812 7.265625 7.335938 6.792969 7.480469 C 6.074219 7.699219 5.871094 7.75 5.207031 7.894531 C 4.710938 8 4.53125 8.054688 4.449219 8.117188 C 4.417969 8.144531 4.421875 8.15625 4.464844 8.191406 C 4.652344 8.351562 5.105469 8.554688 5.527344 8.664062 C 5.8125 8.738281 6.300781 8.816406 6.652344 8.84375 C 7.25 8.894531 7.789062 8.886719 8.265625 8.824219 C 8.957031 8.730469 9.265625 8.660156 9.71875 8.496094 C 10.4375 8.230469 10.582031 8.164062 11.085938 7.878906 C 11.679688 7.546875 12.230469 7.128906 12.722656 6.636719 C 12.863281 6.496094 13.101562 6.234375 13.210938 6.097656 C 13.425781 5.828125 13.691406 5.441406 13.828125 5.195312 C 13.996094 4.890625 14.15625 4.566406 14.203125 4.429688 C 14.277344 4.222656 14.292969 4.167969 14.359375 3.945312 C 14.460938 3.605469 14.511719 3.378906 14.566406 3.042969 C 14.617188 2.761719 14.640625 2.445312 14.625 2.289062 C 14.613281 2.199219 14.589844 2.121094 14.5625 2.105469 C 14.542969 2.09375 14.550781 2.09375 14.5 2.121094 Z M 14.5 2.121094 "/>
<path style=" stroke:none;fill-rule:nonzero;fill:rgb(0%,0%,0%);fill-opacity:1;" d="M 0.585938 2.125 C 0.53125 2.15625 0.449219 2.523438 0.425781 2.824219 C 0.402344 3.105469 0.46875 3.613281 0.578125 4.019531 C 0.664062 4.332031 0.757812 4.554688 0.929688 4.871094 C 1.144531 5.261719 1.355469 5.554688 1.640625 5.851562 C 2.21875 6.460938 2.867188 6.875 3.714844 7.175781 C 3.984375 7.269531 4.175781 7.3125 4.523438 7.363281 C 4.757812 7.398438 4.929688 7.40625 5.199219 7.402344 C 5.726562 7.390625 6.175781 7.304688 6.570312 7.140625 C 6.769531 7.054688 7.183594 6.847656 7.28125 6.78125 C 7.433594 6.679688 7.535156 6.570312 7.519531 6.523438 C 7.511719 6.484375 7.367188 6.421875 7.121094 6.351562 C 6.921875 6.292969 6.429688 6.140625 6.210938 6.074219 C 5.734375 5.921875 5.175781 5.703125 4.667969 5.46875 C 4.484375 5.382812 3.910156 5.089844 3.738281 4.988281 C 3.179688 4.664062 2.703125 4.324219 2.34375 4 C 2.195312 3.863281 1.644531 3.289062 1.515625 3.136719 C 1.476562 3.089844 1.398438 3 1.34375 2.933594 C 1.210938 2.773438 1.0625 2.597656 0.9375 2.4375 C 0.820312 2.292969 0.722656 2.1875 0.65625 2.144531 C 0.613281 2.113281 0.605469 2.109375 0.585938 2.125 Z M 0.585938 2.125 "/>
</g>
</svg>
