<?xml version="1.0" encoding="UTF-8"?>
<svg xmlns="http://www.w3.org/2000/svg" xmlns:xlink="http://www.w3.org/1999/xlink" width="80px" height="16px" viewBox="0 0 81 16" version="1.1">
<g id="surface1">
<path style=" stroke:none;fill-rule:nonzero;fill:rgb(0%,0%,0%);fill-opacity:1;" d="M 27.519531 3.097656 C 27.46875 3.128906 27.300781 3.332031 27.144531 3.550781 C 26.511719 4.453125 25.773438 5.273438 24.875 6.074219 C 24.101562 6.765625 23.679688 7.09375 22.800781 7.675781 C 21.664062 8.425781 20.613281 9.003906 19.257812 9.601562 C 17.667969 10.304688 15.515625 11.007812 13.890625 11.351562 C 12.515625 11.640625 12.128906 11.753906 12.164062 11.855469 C 12.191406 11.945312 12.933594 12.304688 13.394531 12.449219 C 14.347656 12.753906 15.277344 12.875 16.664062 12.875 C 18.296875 12.871094 19.230469 12.710938 20.714844 12.167969 C 23.84375 11.027344 26.367188 8.621094 27.25 5.9375 C 27.535156 5.0625 27.679688 4.367188 27.703125 3.722656 C 27.726562 3.125 27.691406 3.007812 27.519531 3.097656 Z M 27.519531 3.097656 "/>
<path style=" stroke:none;fill-rule:nonzero;fill:rgb(0%,0%,0%);fill-opacity:1;" d="M 6.222656 3.230469 C 6.1875 3.3125 6.128906 3.554688 6.09375 3.773438 C 6.015625 4.203125 6.027344 4.585938 6.136719 5.214844 C 6.488281 7.222656 8.03125 9.09375 10.125 10.046875 C 11.289062 10.574219 11.953125 10.71875 13.226562 10.71875 C 14.472656 10.71875 14.953125 10.613281 16 10.113281 C 16.496094 9.878906 16.875 9.609375 16.875 9.492188 C 16.875 9.417969 16.777344 9.382812 15.5 9.007812 C 13.796875 8.507812 12.769531 8.105469 11.460938 7.429688 C 10.0625 6.710938 9.292969 6.15625 8.285156 5.140625 C 7.890625 4.746094 7.335938 4.148438 7.054688 3.816406 C 6.570312 3.253906 6.398438 3.085938 6.316406 3.085938 C 6.296875 3.085938 6.257812 3.15625 6.222656 3.230469 Z M 6.222656 3.230469 "/>
<path style=" stroke:none;fill-rule:nonzero;fill:rgb(0%,0%,0%);fill-opacity:1;" d="M 46.4375 3.992188 L 46.019531 4.082031 L 45.894531 4.398438 C 45.824219 4.570312 45.609375 5.113281 45.417969 5.601562 C 44.714844 7.382812 44.203125 8.644531 44.125 8.808594 C 44.019531 9.011719 44.050781 9.046875 44.339844 9.046875 C 44.660156 9.046875 44.707031 9.019531 44.785156 8.777344 C 44.878906 8.492188 45.277344 7.472656 45.304688 7.4375 C 45.316406 7.421875 45.753906 7.394531 46.261719 7.382812 L 47.195312 7.351562 L 47.414062 8 C 47.535156 8.355469 47.675781 8.730469 47.726562 8.835938 L 47.820312 9.027344 L 48.28125 9.039062 C 48.535156 9.042969 48.765625 9.042969 48.792969 9.03125 C 48.851562 9.011719 48.605469 8.21875 48.285156 7.402344 C 48.199219 7.1875 48.019531 6.695312 47.882812 6.304688 C 47.746094 5.917969 47.570312 5.421875 47.492188 5.199219 C 47.414062 4.980469 47.273438 4.597656 47.191406 4.34375 C 47.003906 3.824219 47.070312 3.851562 46.4375 3.992188 Z M 46.617188 5.675781 C 46.777344 6.195312 46.929688 6.675781 46.953125 6.746094 C 46.980469 6.808594 46.992188 6.863281 46.988281 6.867188 C 46.980469 6.867188 46.640625 6.867188 46.230469 6.859375 L 45.488281 6.84375 L 45.613281 6.5 C 45.683594 6.308594 45.839844 5.863281 45.964844 5.519531 C 46.179688 4.882812 46.269531 4.671875 46.304688 4.707031 C 46.3125 4.714844 46.453125 5.148438 46.617188 5.675781 Z M 46.617188 5.675781 "/>
<path style=" stroke:none;fill-rule:nonzero;fill:rgb(0%,0%,0%);fill-opacity:1;" d="M 34.4375 4.039062 C 33.71875 4.195312 33.242188 4.730469 33.242188 5.378906 C 33.242188 5.761719 33.363281 6.0625 33.609375 6.316406 C 33.839844 6.550781 34.0625 6.671875 34.679688 6.902344 C 35.222656 7.097656 35.542969 7.3125 35.605469 7.503906 C 35.660156 7.664062 35.625 8.042969 35.539062 8.210938 C 35.460938 8.359375 35.390625 8.398438 35.066406 8.457031 C 34.734375 8.515625 34.246094 8.433594 33.691406 8.222656 C 33.480469 8.144531 33.296875 8.089844 33.277344 8.101562 C 33.226562 8.136719 33.0625 8.699219 33.082031 8.761719 C 33.113281 8.835938 33.546875 8.976562 34.117188 9.097656 L 34.542969 9.1875 L 34.917969 9.097656 C 35.546875 8.957031 35.769531 8.851562 36.027344 8.585938 C 36.550781 8.058594 36.679688 7.550781 36.421875 7.011719 C 36.191406 6.519531 35.929688 6.324219 35.058594 5.992188 C 34.300781 5.699219 34.046875 5.488281 34.046875 5.160156 C 34.046875 4.96875 34.164062 4.730469 34.296875 4.660156 C 34.453125 4.578125 35.40625 4.621094 35.816406 4.726562 C 35.988281 4.773438 36.140625 4.804688 36.152344 4.796875 C 36.175781 4.769531 36.257812 4.101562 36.234375 4.082031 C 36.195312 4.042969 35.425781 3.976562 35.058594 3.980469 C 34.859375 3.980469 34.582031 4.007812 34.4375 4.039062 Z M 34.4375 4.039062 "/>
<path style=" stroke:none;fill-rule:nonzero;fill:rgb(0%,0%,0%);fill-opacity:1;" d="M 37.660156 4.066406 C 37.644531 4.121094 37.632812 4.25 37.632812 4.355469 C 37.632812 4.460938 37.601562 4.78125 37.566406 5.074219 C 37.535156 5.367188 37.472656 6.089844 37.421875 6.679688 C 37.375 7.273438 37.304688 8.035156 37.269531 8.367188 C 37.1875 9.070312 37.183594 9.058594 37.546875 9.039062 L 37.777344 9.027344 L 37.867188 8.097656 C 37.917969 7.585938 37.988281 6.785156 38.03125 6.320312 C 38.074219 5.855469 38.121094 5.4375 38.136719 5.394531 C 38.175781 5.289062 38.203125 5.347656 39.0625 7.105469 C 39.890625 8.808594 40.015625 9.023438 40.171875 9.039062 C 40.324219 9.058594 40.425781 8.9375 40.609375 8.503906 C 40.695312 8.304688 40.867188 7.917969 40.996094 7.652344 C 41.523438 6.546875 41.925781 5.675781 41.996094 5.484375 C 42.089844 5.234375 42.144531 5.195312 42.144531 5.378906 C 42.144531 5.515625 42.261719 6.460938 42.441406 7.714844 C 42.488281 8.042969 42.523438 8.457031 42.523438 8.636719 C 42.523438 8.914062 42.539062 8.972656 42.601562 8.996094 C 42.699219 9.035156 43.519531 9.035156 43.5625 8.996094 C 43.578125 8.980469 43.5625 8.761719 43.523438 8.511719 C 43.488281 8.257812 43.445312 7.917969 43.433594 7.757812 C 43.40625 7.46875 43.328125 6.625 43.242188 5.8125 C 43.222656 5.582031 43.179688 5.125 43.152344 4.800781 C 43.085938 3.9375 43.148438 4.03125 42.644531 4.007812 C 42.402344 3.996094 42.179688 4.003906 42.144531 4.019531 C 42.074219 4.054688 41.726562 4.765625 40.609375 7.164062 C 40.5 7.398438 40.398438 7.570312 40.378906 7.542969 C 40.359375 7.523438 40.308594 7.421875 40.273438 7.316406 C 40.230469 7.210938 39.855469 6.425781 39.433594 5.570312 L 38.667969 4.015625 L 38.265625 4.015625 C 38.042969 4.015625 37.820312 4.003906 37.773438 3.992188 C 37.707031 3.976562 37.675781 3.992188 37.660156 4.066406 Z M 37.660156 4.066406 "/>
<path style=" stroke:none;fill-rule:nonzero;fill:rgb(0%,0%,0%);fill-opacity:1;" d="M 49.855469 4.003906 L 49.484375 4.019531 L 49.484375 9.046875 L 49.820312 9.046875 C 50 9.046875 50.234375 9.035156 50.332031 9.023438 L 50.519531 8.996094 L 50.519531 7.992188 C 50.519531 7.4375 50.53125 6.96875 50.554688 6.953125 C 50.570312 6.933594 50.65625 6.9375 50.742188 6.960938 C 50.890625 6.996094 50.910156 7.023438 51.195312 7.570312 C 51.492188 8.15625 51.785156 8.601562 52 8.804688 C 52.257812 9.042969 52.796875 9.171875 53.222656 9.089844 C 53.664062 9.007812 53.734375 8.824219 53.375 8.707031 C 53.136719 8.628906 52.851562 8.402344 52.644531 8.121094 C 52.410156 7.796875 51.890625 6.9375 51.890625 6.871094 C 51.890625 6.84375 51.996094 6.75 52.132812 6.65625 C 52.433594 6.449219 52.585938 6.234375 52.699219 5.863281 C 52.871094 5.304688 52.753906 4.714844 52.417969 4.386719 C 52.054688 4.035156 51.460938 3.945312 49.855469 4.003906 Z M 51.183594 4.523438 C 51.382812 4.582031 51.578125 4.75 51.679688 4.953125 C 51.78125 5.144531 51.796875 5.714844 51.703125 5.933594 C 51.589844 6.210938 51.257812 6.410156 50.746094 6.503906 L 50.550781 6.542969 L 50.523438 6.324219 C 50.488281 6.042969 50.488281 4.925781 50.523438 4.675781 L 50.554688 4.480469 L 50.789062 4.480469 C 50.921875 4.480469 51.097656 4.503906 51.183594 4.523438 Z M 51.183594 4.523438 "/>
<path style=" stroke:none;fill-rule:nonzero;fill:rgb(0%,0%,0%);fill-opacity:1;" d="M 53.367188 4.203125 C 53.367188 4.542969 53.328125 4.523438 54.171875 4.523438 L 54.929688 4.523438 L 54.9375 5.886719 C 54.941406 6.636719 54.945312 7.648438 54.949219 8.140625 L 54.949219 9.027344 L 55.445312 9.039062 L 55.941406 9.054688 L 55.941406 4.570312 L 56.078125 4.550781 C 56.152344 4.535156 56.480469 4.519531 56.800781 4.507812 C 57.140625 4.492188 57.414062 4.460938 57.441406 4.433594 C 57.476562 4.410156 57.5 4.316406 57.5 4.226562 C 57.5 4.085938 57.488281 4.066406 57.371094 4.042969 C 57.300781 4.03125 56.367188 4.015625 55.304688 4.015625 L 53.367188 4.015625 Z M 53.367188 4.203125 "/>
<path style=" stroke:none;fill-rule:nonzero;fill:rgb(0%,0%,0%);fill-opacity:1;" d="M 58.21875 6.160156 C 58.21875 7.34375 58.207031 8.460938 58.195312 8.652344 L 58.164062 8.992188 L 59.363281 9.015625 C 60.019531 9.027344 60.714844 9.027344 60.910156 9.015625 C 61.257812 8.992188 61.257812 8.992188 61.257812 8.878906 C 61.257812 8.644531 61.230469 8.625 60.902344 8.625 C 60.734375 8.625 60.277344 8.613281 59.894531 8.597656 L 59.1875 8.570312 L 59.1875 6.679688 L 60.007812 6.679688 C 60.457031 6.679688 60.855469 6.667969 60.894531 6.65625 C 60.941406 6.636719 60.960938 6.574219 60.960938 6.449219 L 60.960938 6.269531 L 60.765625 6.242188 C 60.65625 6.226562 60.261719 6.214844 59.882812 6.214844 L 59.1875 6.214844 L 59.1875 5.390625 C 59.1875 4.570312 59.1875 4.566406 59.285156 4.550781 C 59.335938 4.535156 59.75 4.519531 60.203125 4.507812 C 61.109375 4.484375 61.128906 4.476562 61.128906 4.207031 L 61.128906 4.070312 L 60.71875 4.046875 C 60.492188 4.03125 59.839844 4.015625 59.265625 4.015625 L 58.21875 4.015625 Z M 58.21875 6.160156 "/>
<path style=" stroke:none;fill-rule:nonzero;fill:rgb(0%,0%,0%);fill-opacity:1;" d="M 62.128906 4.046875 C 62.113281 4.058594 62.101562 5.179688 62.101562 6.53125 L 62.101562 8.992188 L 62.324219 9.023438 C 62.609375 9.058594 64.058594 9.058594 64.660156 9.019531 L 65.128906 8.992188 L 65.160156 8.84375 C 65.171875 8.765625 65.171875 8.683594 65.148438 8.664062 C 65.132812 8.648438 64.664062 8.617188 64.117188 8.601562 L 63.113281 8.570312 L 63.113281 6.679688 L 63.96875 6.671875 L 64.820312 6.660156 L 64.832031 6.433594 L 64.847656 6.214844 L 63.113281 6.214844 L 63.113281 4.523438 L 63.609375 4.523438 C 63.890625 4.523438 64.316406 4.511719 64.558594 4.496094 L 65.011719 4.46875 L 65.011719 4.015625 L 63.585938 4.015625 C 62.800781 4.015625 62.140625 4.03125 62.128906 4.046875 Z M 62.128906 4.046875 "/>
<path style=" stroke:none;fill-rule:nonzero;fill:rgb(0%,0%,0%);fill-opacity:1;" d="M 65.515625 4.246094 L 65.515625 4.472656 L 66.226562 4.492188 C 66.613281 4.496094 66.957031 4.519531 66.984375 4.535156 C 67.027344 4.566406 67.035156 5.039062 67.035156 6.800781 L 67.03125 9.027344 L 67.558594 9.039062 L 68.089844 9.054688 L 68.097656 6.800781 L 68.113281 4.546875 L 68.832031 4.5 C 69.230469 4.472656 69.574219 4.441406 69.605469 4.421875 C 69.628906 4.40625 69.652344 4.320312 69.652344 4.234375 L 69.652344 4.070312 L 69.199219 4.046875 C 68.957031 4.03125 68.023438 4.015625 67.132812 4.015625 L 65.515625 4.015625 Z M 65.515625 4.246094 "/>
<path style=" stroke:none;fill-rule:nonzero;fill:rgb(0%,0%,0%);fill-opacity:1;" d="M 73.617188 5.117188 L 73.617188 6.214844 L 72.480469 6.214844 C 71.488281 6.214844 71.34375 6.207031 71.320312 6.148438 C 71.308594 6.109375 71.296875 5.628906 71.296875 5.070312 L 71.296875 4.058594 L 70.300781 4.058594 L 70.308594 6.542969 L 70.3125 9.027344 L 71.316406 9.027344 L 71.316406 8.308594 C 71.320312 7.910156 71.328125 7.414062 71.332031 7.195312 L 71.339844 6.808594 L 73.617188 6.808594 L 73.617188 9.007812 L 73.714844 9.027344 C 73.765625 9.039062 73.988281 9.046875 74.207031 9.039062 L 74.609375 9.027344 L 74.609375 4.066406 L 74.484375 4.042969 C 74.417969 4.03125 74.199219 4.015625 73.992188 4.015625 L 73.617188 4.015625 Z M 73.617188 5.117188 "/>
<path style=" stroke:none;fill-rule:nonzero;fill:rgb(0%,0%,0%);fill-opacity:1;" d="M 38.820312 10.707031 C 38.800781 10.734375 38.671875 11.027344 38.539062 11.351562 C 38 12.683594 38.027344 12.621094 37.910156 12.617188 C 37.851562 12.617188 37.644531 12.613281 37.453125 12.609375 C 37.261719 12.605469 37.078125 12.582031 37.042969 12.5625 C 37.007812 12.535156 36.980469 12.402344 36.964844 12.125 L 36.945312 11.726562 L 37.109375 11.699219 C 37.199219 11.683594 37.375 11.671875 37.496094 11.671875 C 37.660156 11.671875 37.714844 11.652344 37.714844 11.605469 C 37.714844 11.554688 37.648438 11.542969 37.359375 11.542969 C 37.117188 11.542969 37.003906 11.527344 36.988281 11.488281 C 36.980469 11.464844 36.980469 11.3125 36.988281 11.148438 L 37.007812 10.867188 L 37.402344 10.867188 C 37.726562 10.867188 37.800781 10.855469 37.800781 10.804688 C 37.800781 10.75 37.710938 10.738281 37.273438 10.738281 L 36.746094 10.738281 L 36.746094 12.726562 L 38.179688 12.726562 L 38.203125 12.609375 C 38.25 12.425781 38.390625 12.117188 38.445312 12.085938 C 38.476562 12.066406 38.675781 12.050781 38.902344 12.050781 L 39.304688 12.050781 L 39.378906 12.386719 C 39.4375 12.660156 39.464844 12.722656 39.542969 12.746094 C 39.59375 12.757812 39.648438 12.753906 39.667969 12.730469 C 39.699219 12.703125 39.386719 11.589844 39.253906 11.269531 C 39.011719 10.683594 38.925781 10.574219 38.820312 10.707031 Z M 39.0625 11.414062 C 39.160156 11.632812 39.234375 11.835938 39.234375 11.863281 C 39.234375 11.902344 39.144531 11.910156 38.886719 11.894531 C 38.695312 11.882812 38.535156 11.863281 38.53125 11.859375 C 38.511719 11.851562 38.761719 11.171875 38.816406 11.070312 C 38.84375 11.023438 38.867188 10.992188 38.875 11.003906 C 38.882812 11.007812 38.96875 11.191406 39.0625 11.414062 Z M 39.0625 11.414062 "/>
<path style=" stroke:none;fill-rule:nonzero;fill:rgb(0%,0%,0%);fill-opacity:1;" d="M 43.277344 10.726562 C 43.199219 10.820312 42.808594 11.476562 42.730469 11.636719 C 42.679688 11.75 42.675781 11.75 42.429688 11.296875 C 42.148438 10.800781 42.078125 10.699219 41.988281 10.699219 C 41.863281 10.699219 41.941406 10.902344 42.367188 11.671875 C 42.511719 11.925781 42.523438 11.96875 42.523438 12.304688 C 42.523438 12.699219 42.554688 12.785156 42.675781 12.761719 C 42.75 12.75 42.761719 12.695312 42.777344 12.300781 L 42.804688 11.851562 L 43.082031 11.347656 C 43.367188 10.824219 43.445312 10.65625 43.378906 10.65625 C 43.355469 10.65625 43.308594 10.6875 43.277344 10.726562 Z M 43.277344 10.726562 "/>
<path style=" stroke:none;fill-rule:nonzero;fill:rgb(0%,0%,0%);fill-opacity:1;" d="M 59.515625 10.730469 C 59.421875 10.832031 59.167969 11.386719 59.105469 11.625 C 59.078125 11.726562 58.972656 12.003906 58.867188 12.246094 C 58.679688 12.695312 58.65625 12.769531 58.714844 12.769531 C 58.804688 12.769531 58.902344 12.636719 59.011719 12.367188 L 59.132812 12.070312 L 59.515625 12.058594 C 59.949219 12.046875 59.9375 12.039062 60.070312 12.410156 C 60.179688 12.710938 60.226562 12.769531 60.332031 12.769531 C 60.445312 12.769531 60.433594 12.703125 60.246094 12.210938 C 60.160156 11.96875 60.054688 11.671875 60.011719 11.542969 C 59.855469 11.054688 59.6875 10.65625 59.636719 10.65625 C 59.605469 10.65625 59.550781 10.6875 59.515625 10.730469 Z M 59.734375 11.378906 C 59.804688 11.628906 59.863281 11.84375 59.863281 11.855469 C 59.863281 11.867188 59.703125 11.882812 59.503906 11.882812 L 59.148438 11.882812 L 59.234375 11.65625 C 59.339844 11.382812 59.574219 10.894531 59.589844 10.917969 C 59.597656 10.925781 59.660156 11.132812 59.734375 11.378906 Z M 59.734375 11.378906 "/>
<path style=" stroke:none;fill-rule:nonzero;fill:rgb(0%,0%,0%);fill-opacity:1;" d="M 73.195312 10.707031 C 73.195312 10.730469 73.296875 10.9375 73.421875 11.160156 C 73.769531 11.765625 73.835938 11.96875 73.84375 12.390625 C 73.847656 12.722656 73.851562 12.75 73.941406 12.761719 C 74.046875 12.777344 74.0625 12.714844 74.09375 12.214844 C 74.109375 11.976562 74.152344 11.84375 74.394531 11.34375 C 74.546875 11.023438 74.671875 10.734375 74.671875 10.703125 C 74.671875 10.554688 74.542969 10.734375 74.273438 11.246094 L 73.984375 11.8125 L 73.761719 11.339844 C 73.636719 11.082031 73.492188 10.820312 73.429688 10.761719 C 73.320312 10.652344 73.195312 10.621094 73.195312 10.707031 Z M 73.195312 10.707031 "/>
<path style=" stroke:none;fill-rule:nonzero;fill:rgb(0%,0%,0%);fill-opacity:1;" d="M 44.179688 10.734375 C 43.984375 10.785156 43.882812 10.890625 43.746094 11.183594 C 43.652344 11.378906 43.621094 11.5 43.621094 11.695312 C 43.621094 12.355469 43.996094 12.785156 44.570312 12.785156 C 45.195312 12.785156 45.558594 12.335938 45.511719 11.605469 C 45.472656 11.019531 45.203125 10.75 44.628906 10.71875 C 44.457031 10.710938 44.253906 10.71875 44.179688 10.734375 Z M 45.019531 10.996094 C 45.285156 11.183594 45.382812 11.878906 45.191406 12.261719 C 44.949219 12.765625 44.257812 12.753906 44 12.242188 C 43.914062 12.0625 43.894531 11.976562 43.898438 11.671875 C 43.90625 11.105469 44.035156 10.914062 44.464844 10.859375 C 44.621094 10.835938 44.882812 10.902344 45.019531 10.996094 Z M 45.019531 10.996094 "/>
<path style=" stroke:none;fill-rule:nonzero;fill:rgb(0%,0%,0%);fill-opacity:1;" d="M 45.996094 10.726562 C 45.929688 10.753906 45.925781 11.613281 45.984375 12.09375 C 46.03125 12.445312 46.101562 12.574219 46.324219 12.707031 C 46.621094 12.878906 47.21875 12.757812 47.40625 12.480469 C 47.472656 12.386719 47.480469 12.257812 47.496094 11.550781 L 47.511719 10.738281 L 47.292969 10.738281 L 47.292969 11.445312 C 47.292969 11.839844 47.269531 12.226562 47.246094 12.3125 C 47.152344 12.65625 46.585938 12.734375 46.316406 12.449219 C 46.21875 12.34375 46.214844 12.320312 46.203125 11.519531 C 46.1875 10.652344 46.1875 10.648438 45.996094 10.726562 Z M 45.996094 10.726562 "/>
<path style=" stroke:none;fill-rule:nonzero;fill:rgb(0%,0%,0%);fill-opacity:1;" d="M 48.105469 10.722656 C 48.0625 10.738281 48.050781 10.984375 48.050781 11.738281 L 48.050781 12.730469 L 48.285156 12.707031 L 48.285156 12.296875 C 48.285156 12.070312 48.296875 11.878906 48.308594 11.859375 C 48.324219 11.847656 48.390625 11.847656 48.449219 11.863281 C 48.527344 11.882812 48.625 11.988281 48.769531 12.195312 C 48.992188 12.53125 49.21875 12.753906 49.382812 12.796875 C 49.546875 12.835938 49.554688 12.785156 49.417969 12.621094 C 49.351562 12.535156 49.195312 12.34375 49.078125 12.1875 L 48.851562 11.90625 L 49.046875 11.734375 C 49.269531 11.535156 49.347656 11.304688 49.273438 11.035156 C 49.242188 10.90625 49.203125 10.863281 49.074219 10.8125 C 48.914062 10.75 48.199219 10.683594 48.105469 10.722656 Z M 48.886719 10.9375 C 49.101562 11.074219 49.109375 11.421875 48.902344 11.613281 C 48.808594 11.703125 48.761719 11.714844 48.535156 11.703125 L 48.285156 11.6875 L 48.285156 11.296875 C 48.285156 10.996094 48.296875 10.894531 48.347656 10.867188 C 48.425781 10.816406 48.765625 10.859375 48.886719 10.9375 Z M 48.886719 10.9375 "/>
<path style=" stroke:none;fill-rule:nonzero;fill:rgb(0%,0%,0%);fill-opacity:1;" d="M 50.765625 10.746094 C 50.453125 10.835938 50.304688 11.285156 50.511719 11.523438 C 50.5625 11.585938 50.753906 11.714844 50.941406 11.808594 C 51.269531 11.984375 51.277344 11.992188 51.292969 12.160156 C 51.3125 12.417969 51.1875 12.558594 50.929688 12.558594 C 50.820312 12.558594 50.644531 12.519531 50.542969 12.472656 C 50.328125 12.375 50.300781 12.390625 50.355469 12.550781 C 50.390625 12.644531 50.433594 12.675781 50.628906 12.722656 C 51.058594 12.832031 51.40625 12.664062 51.511719 12.289062 C 51.609375 11.941406 51.476562 11.726562 51.082031 11.582031 C 50.769531 11.46875 50.582031 11.320312 50.582031 11.183594 C 50.582031 10.972656 50.886719 10.832031 51.175781 10.910156 C 51.382812 10.964844 51.476562 10.917969 51.402344 10.789062 C 51.347656 10.707031 50.984375 10.679688 50.765625 10.746094 Z M 50.765625 10.746094 "/>
<path style=" stroke:none;fill-rule:nonzero;fill:rgb(0%,0%,0%);fill-opacity:1;" d="M 52.027344 11.042969 C 51.960938 11.496094 51.878906 12.683594 51.90625 12.714844 C 51.921875 12.726562 51.957031 12.726562 51.996094 12.714844 C 52.042969 12.695312 52.058594 12.625 52.058594 12.453125 C 52.058594 12.207031 52.125 11.472656 52.167969 11.292969 C 52.183594 11.234375 52.207031 11.210938 52.226562 11.230469 C 52.25 11.25 52.398438 11.566406 52.5625 11.925781 C 52.890625 12.636719 52.992188 12.785156 53.089844 12.683594 C 53.121094 12.652344 53.214844 12.460938 53.296875 12.261719 C 53.375 12.0625 53.527344 11.746094 53.628906 11.554688 L 53.8125 11.210938 L 53.863281 11.789062 C 53.894531 12.105469 53.914062 12.449219 53.914062 12.546875 C 53.914062 12.726562 53.914062 12.726562 54.066406 12.726562 C 54.203125 12.726562 54.21875 12.71875 54.199219 12.628906 C 54.1875 12.578125 54.128906 12.144531 54.082031 11.660156 C 54.03125 11.179688 53.96875 10.761719 53.949219 10.730469 C 53.925781 10.6875 53.898438 10.699219 53.847656 10.761719 C 53.765625 10.875 53.292969 11.804688 53.171875 12.09375 C 53.121094 12.21875 53.066406 12.320312 53.050781 12.316406 C 53.035156 12.3125 52.875 11.996094 52.691406 11.609375 C 52.308594 10.804688 52.246094 10.699219 52.144531 10.699219 C 52.085938 10.699219 52.0625 10.761719 52.027344 11.042969 Z M 52.027344 11.042969 "/>
<path style=" stroke:none;fill-rule:nonzero;fill:rgb(0%,0%,0%);fill-opacity:1;" d="M 54.691406 10.746094 C 54.640625 10.828125 54.621094 11.480469 54.652344 12.105469 L 54.683594 12.726562 L 54.929688 12.726562 L 54.929688 11.78125 C 54.929688 11.261719 54.914062 10.804688 54.902344 10.765625 C 54.875 10.6875 54.738281 10.675781 54.691406 10.746094 Z M 54.691406 10.746094 "/>
<path style=" stroke:none;fill-rule:nonzero;fill:rgb(0%,0%,0%);fill-opacity:1;" d="M 60.707031 11.445312 C 60.707031 11.859375 60.71875 12.324219 60.734375 12.476562 C 60.757812 12.722656 60.769531 12.757812 60.839844 12.738281 C 60.914062 12.71875 60.917969 12.664062 60.917969 11.949219 L 60.921875 11.183594 L 61.140625 11.4375 C 61.65625 12.035156 62.300781 12.707031 62.367188 12.71875 C 62.429688 12.730469 62.4375 12.644531 62.4375 11.710938 C 62.4375 10.761719 62.433594 10.695312 62.367188 10.707031 C 62.296875 10.71875 62.285156 10.800781 62.269531 11.515625 L 62.246094 12.3125 L 61.945312 11.957031 C 61.351562 11.277344 60.832031 10.71875 60.765625 10.707031 C 60.714844 10.695312 60.707031 10.8125 60.707031 11.445312 Z M 60.707031 11.445312 "/>
<path style=" stroke:none;fill-rule:nonzero;fill:rgb(0%,0%,0%);fill-opacity:1;" d="M 63.0625 10.726562 C 62.988281 10.746094 62.984375 10.828125 62.984375 11.734375 C 62.984375 12.59375 62.996094 12.722656 63.054688 12.746094 C 63.175781 12.789062 63.71875 12.769531 63.953125 12.707031 C 64.382812 12.59375 64.605469 12.226562 64.609375 11.648438 C 64.609375 11.367188 64.59375 11.273438 64.503906 11.097656 C 64.40625 10.914062 64.371094 10.878906 64.1875 10.820312 C 63.980469 10.753906 63.207031 10.6875 63.0625 10.726562 Z M 64.058594 10.976562 C 64.320312 11.113281 64.386719 11.277344 64.371094 11.753906 C 64.355469 12.023438 64.328125 12.199219 64.28125 12.292969 C 64.179688 12.484375 63.925781 12.605469 63.554688 12.628906 L 63.25 12.65625 L 63.226562 12.515625 C 63.1875 12.339844 63.1875 11.464844 63.226562 11.121094 L 63.25 10.859375 L 63.574219 10.875 C 63.789062 10.882812 63.949219 10.917969 64.058594 10.976562 Z M 64.058594 10.976562 "/>
<path style=" stroke:none;fill-rule:nonzero;fill:rgb(0%,0%,0%);fill-opacity:1;" d="M 65.136719 11.734375 L 65.136719 12.773438 L 65.234375 12.761719 C 65.324219 12.75 65.328125 12.726562 65.339844 12.292969 C 65.347656 11.894531 65.359375 11.839844 65.425781 11.839844 C 65.546875 11.839844 65.667969 11.953125 65.804688 12.1875 C 66.003906 12.542969 66.449219 12.90625 66.558594 12.796875 C 66.585938 12.769531 66.554688 12.730469 66.121094 12.207031 L 65.863281 11.894531 L 65.972656 11.832031 C 66.203125 11.691406 66.332031 11.519531 66.351562 11.296875 C 66.378906 11.03125 66.285156 10.84375 66.097656 10.789062 C 66.023438 10.765625 65.773438 10.730469 65.550781 10.71875 L 65.136719 10.6875 Z M 65.933594 10.921875 C 66.144531 11.027344 66.152344 11.425781 65.953125 11.609375 C 65.863281 11.695312 65.796875 11.710938 65.597656 11.710938 L 65.347656 11.710938 L 65.347656 10.867188 L 65.59375 10.867188 C 65.722656 10.867188 65.878906 10.890625 65.933594 10.921875 Z M 65.933594 10.921875 "/>
<path style=" stroke:none;fill-rule:nonzero;fill:rgb(0%,0%,0%);fill-opacity:1;" d="M 67.363281 10.746094 C 67.011719 10.84375 66.832031 11.269531 66.882812 11.875 C 66.925781 12.390625 67.140625 12.679688 67.542969 12.765625 C 68.085938 12.882812 68.5625 12.578125 68.675781 12.046875 C 68.808594 11.449219 68.652344 10.984375 68.273438 10.816406 C 68.050781 10.71875 67.585938 10.683594 67.363281 10.746094 Z M 68.132812 10.945312 C 68.363281 11.070312 68.441406 11.242188 68.445312 11.644531 C 68.449219 11.835938 68.433594 12.058594 68.414062 12.144531 C 68.28125 12.78125 67.328125 12.789062 67.167969 12.160156 C 67.109375 11.914062 67.109375 11.296875 67.167969 11.121094 C 67.230469 10.945312 67.398438 10.871094 67.730469 10.867188 C 67.902344 10.867188 68.035156 10.890625 68.132812 10.945312 Z M 68.132812 10.945312 "/>
<path style=" stroke:none;fill-rule:nonzero;fill:rgb(0%,0%,0%);fill-opacity:1;" d="M 69.210938 10.765625 C 69.199219 10.804688 69.1875 11.226562 69.1875 11.710938 C 69.1875 12.199219 69.199219 12.621094 69.210938 12.660156 C 69.230469 12.703125 69.289062 12.726562 69.359375 12.726562 L 69.484375 12.726562 L 69.484375 10.699219 L 69.359375 10.699219 C 69.289062 10.699219 69.230469 10.722656 69.210938 10.765625 Z M 69.210938 10.765625 "/>
<path style=" stroke:none;fill-rule:nonzero;fill:rgb(0%,0%,0%);fill-opacity:1;" d="M 70.023438 10.722656 C 70 10.738281 69.988281 11.1875 69.988281 11.714844 C 69.988281 12.863281 69.949219 12.789062 70.554688 12.761719 C 71.003906 12.738281 71.207031 12.65625 71.4375 12.390625 C 71.699219 12.082031 71.757812 11.550781 71.570312 11.175781 C 71.449219 10.933594 71.351562 10.855469 71.101562 10.785156 C 70.882812 10.730469 70.0625 10.679688 70.023438 10.722656 Z M 70.792969 10.886719 C 71.394531 10.964844 71.648438 11.753906 71.253906 12.300781 C 71.089844 12.523438 70.917969 12.609375 70.574219 12.632812 L 70.296875 12.652344 L 70.265625 12.515625 C 70.234375 12.34375 70.234375 11.046875 70.265625 10.917969 C 70.292969 10.832031 70.3125 10.820312 70.449219 10.839844 C 70.535156 10.855469 70.6875 10.875 70.792969 10.886719 Z M 70.792969 10.886719 "/>
<path style=" stroke:none;fill-rule:nonzero;fill:rgb(0%,0%,0%);fill-opacity:1;" d="M 72.183594 10.808594 C 72.136719 10.925781 72.125 12.3125 72.164062 12.566406 L 72.195312 12.726562 L 72.578125 12.726562 C 72.984375 12.726562 73.152344 12.703125 73.152344 12.636719 C 73.152344 12.617188 72.984375 12.601562 72.773438 12.601562 L 72.394531 12.601562 L 72.394531 11.714844 C 72.394531 11.230469 72.382812 10.804688 72.367188 10.765625 C 72.332031 10.664062 72.230469 10.683594 72.183594 10.808594 Z M 72.183594 10.808594 "/>
<path style=" stroke:none;fill-rule:nonzero;fill:rgb(0%,0%,0%);fill-opacity:1;" d="M 33.117188 10.777344 C 33.117188 10.824219 33.332031 10.867188 33.585938 10.867188 L 33.792969 10.867188 L 33.792969 12.726562 L 34.046875 12.726562 L 34.054688 11.804688 L 34.066406 10.886719 L 34.277344 10.875 C 34.59375 10.863281 34.765625 10.824219 34.742188 10.777344 C 34.707031 10.726562 33.117188 10.726562 33.117188 10.777344 Z M 33.117188 10.777344 "/>
<path style=" stroke:none;fill-rule:nonzero;fill:rgb(0%,0%,0%);fill-opacity:1;" d="M 34.972656 11.730469 L 34.972656 12.726562 L 35.226562 12.726562 L 35.226562 12.285156 C 35.226562 11.847656 35.226562 11.839844 35.324219 11.839844 C 35.433594 11.839844 35.542969 11.945312 35.695312 12.199219 C 35.917969 12.574219 36.222656 12.828125 36.398438 12.785156 C 36.476562 12.765625 36.46875 12.746094 36.292969 12.570312 C 36.1875 12.464844 36.035156 12.273438 35.957031 12.152344 L 35.804688 11.925781 L 35.976562 11.738281 C 36.175781 11.523438 36.21875 11.40625 36.183594 11.132812 C 36.152344 10.808594 36.070312 10.765625 35.480469 10.75 L 34.972656 10.730469 Z M 35.816406 10.910156 C 35.917969 10.964844 36 11.214844 35.964844 11.375 C 35.902344 11.671875 35.730469 11.757812 35.355469 11.6875 L 35.226562 11.65625 L 35.226562 11.332031 C 35.226562 10.875 35.230469 10.867188 35.507812 10.867188 C 35.636719 10.867188 35.773438 10.882812 35.816406 10.910156 Z M 35.816406 10.910156 "/>
<path style=" stroke:none;fill-rule:nonzero;fill:rgb(0%,0%,0%);fill-opacity:1;" d="M 39.699219 10.804688 C 39.699219 10.855469 39.757812 10.867188 39.992188 10.867188 L 40.289062 10.867188 L 40.289062 12.726562 L 40.53125 12.726562 L 40.558594 12.109375 C 40.574219 11.773438 40.574219 11.355469 40.558594 11.183594 L 40.53125 10.871094 L 40.835938 10.859375 C 41.039062 10.851562 41.152344 10.828125 41.167969 10.789062 C 41.179688 10.753906 41.015625 10.738281 40.441406 10.738281 C 39.808594 10.738281 39.699219 10.75 39.699219 10.804688 Z M 39.699219 10.804688 "/>
<path style=" stroke:none;fill-rule:nonzero;fill:rgb(0%,0%,0%);fill-opacity:1;" d="M 55.421875 11.382812 C 55.40625 11.734375 55.390625 12.183594 55.390625 12.375 L 55.390625 12.726562 L 55.914062 12.726562 C 56.40625 12.726562 56.566406 12.695312 56.4375 12.617188 C 56.414062 12.601562 56.234375 12.582031 56.050781 12.582031 L 55.707031 12.578125 L 55.695312 11.65625 L 55.6875 10.738281 L 55.445312 10.738281 Z M 55.421875 11.382812 "/>
<path style=" stroke:none;fill-rule:nonzero;fill:rgb(0%,0%,0%);fill-opacity:1;" d="M 56.855469 11.023438 C 56.839844 11.183594 56.828125 11.628906 56.828125 12.015625 L 56.828125 12.726562 L 57.355469 12.726562 C 57.792969 12.726562 57.882812 12.71875 57.882812 12.664062 C 57.882812 12.613281 57.820312 12.601562 57.597656 12.601562 C 57.105469 12.601562 57.121094 12.617188 57.121094 12.109375 L 57.121094 11.675781 L 57.472656 11.660156 C 57.667969 11.652344 57.816406 11.632812 57.816406 11.605469 C 57.816406 11.582031 57.667969 11.558594 57.472656 11.550781 L 57.121094 11.539062 L 57.121094 10.867188 L 57.5 10.867188 C 57.808594 10.867188 57.882812 10.855469 57.882812 10.804688 C 57.882812 10.753906 57.796875 10.738281 57.378906 10.738281 L 56.882812 10.738281 Z M 56.855469 11.023438 "/>
</g>
</svg>
